Simulation
nRows=19
nColumns=15
endheader
time  TH_x TH_y TH_z SC_y  SC_z  SC_x  AC_y  AC_z  AC_x  GH_y  GH_z  GH_yy  EL_x  PS_y
2.4010000000000002  0.000000  0.000000  0.000000  -20.37214584255031  20.15359226825066  30.837341058540932  44.53617336322763  -7.686705441359006  -6.602519688750012  -48.883367186660905  15.975232436953627  55.26357533952274  11.237560505134313  120.000000
2.4490200000000004  0.000000  0.000000  0.000000  -18.046795108418294  18.327014907603335  27.89361177049818  44.506049200231985  -6.834747548113196  -7.347866871095158  -53.122915386121456  12.77308521880741  63.17111541508934  11.56280934976632  120.000000
2.49704  0.000000  0.000000  0.000000  -16.429739010857286  16.36027286945676  25.19763849439579  44.59449375054274  -5.929046681835086  -8.138614809273651  -57.479366935385755  9.81565654846574  71.93975254440932  12.146012947023687  120.000000
2.5450600000000003  0.000000  0.000000  0.000000  -15.545698203645339  14.394000370757109  22.756607490158572  44.72749538416501  -4.953650902536493  -8.930194931198935  -62.096959875356305  7.111866433267148  81.49557883081137  12.98823418812676  120.000000
2.5930800000000005  0.000000  0.000000  0.000000  -15.29028331348176  12.520515785519606  20.54442117274102  44.84251347532259  -3.882278037662  -9.67758447810893  -67.30486432386756  4.677103471456836  91.86871654384807  14.010159006146168  120.000000
2.6411000000000002  0.000000  0.000000  0.000000  -15.487430883225487  10.777964825041387  18.521473411396833  44.905966058768236  -2.6938104508338396  -10.35056487164073  -73.8805464634392  2.5037170482631135  103.50763082101771  15.094471350261175  120.000000
2.6891200000000004  0.000000  0.000000  0.000000  -15.956498494404022  9.167552020489682  16.652841964389033  44.90928140440501  -1.400563887560429  -10.949546170510699  -90.55464633179204  0.5567054080390159  124.83581791619106  16.129831524925734  120.000000
2.7371400000000006  0.000000  0.000000  0.000000  -16.552251188358312  7.665554503351414  14.90757770106789  44.85517446921734  -0.05948300049433632  -11.500882866185366  103.41122328024977  1.2780779510991178  -65.11895194234835  17.0308032428171  120.000000
2.7851600000000003  0.000000  0.000000  0.000000  -17.187169712835434  6.253822236661639  13.244438669560349  44.76292462871551  1.250997524062843  -12.002667841296546  93.52420542089979  2.9877142546649074  -51.98967418669181  17.74052498705054  120.000000
2.8331800000000005  0.000000  0.000000  0.000000  -17.818986489539565  4.944426760599533  11.61440285954436  44.67664627967361  2.455012584054522  -12.396092388186029  86.15219422410496  4.621491292000408  -42.158175707792914  18.226274655185417  120.000000
2.8812000000000006  0.000000  0.000000  0.000000  -18.421237582869942  3.763906752967628  9.99078438171074  44.641524182837856  3.4888974040304888  -12.619133807793954  79.39960773543137  6.190991344593044  -33.653078540224136  18.481325516814444  120.000000
2.9292200000000004  0.000000  0.000000  0.000000  -18.964542360342374  2.7275877149597676  8.38371938713641  44.66099208710763  4.323978052202084  -12.658176434090214  73.28239003292273  7.725956620249063  -26.356745449143002  18.52830580987208  120.000000
2.9772400000000006  0.000000  0.000000  0.000000  -19.41405152058894  1.8321766179001915  6.821873694723033  44.68879070278656  4.980810455238581  -12.55012682843067  68.07376935411298  9.252800009617713  -20.388241483781528  18.413494646382084  120.000000
3.0252600000000003  0.000000  0.000000  0.000000  -19.735124348071597  1.0633662045101957  5.332733306741603  44.673198691996  5.502084178527582  -12.351605332243317  63.873188362734595  10.77121328841371  -15.710380576444635  18.192229729750025  120.000000
3.0732800000000005  0.000000  0.000000  0.000000  -19.899976134786098  0.40943042942171093  3.935546077795997  44.588531502283764  5.917766734858224  -12.10611609183994  60.52928817713536  12.255351890438211  -12.070252751125263  17.918484149327167  120.000000
3.1213000000000006  0.000000  0.000000  0.000000  -19.894795652079942  -0.1410894101633064  2.6424961547970156  44.42915899010129  6.235922550233325  -11.839740869292342  57.79791765284943  13.67488764638367  -9.156641060940768  17.639709227204985  120.000000
3.1693200000000004  0.000000  0.000000  0.000000  -19.719774170227026  -0.6069220589762218  1.4556960350716608  44.208867909202326  6.452842147359555  -11.572906178201169  55.46918068183815  15.013999537217437  -6.720868427433087  17.386773575880877  120.000000
3.2173400000000005  0.000000  0.000000  0.000000  -19.39641616400385  -1.0129472707277036  0.36830663127403274  43.94411771430242  6.568216201630591  -11.324784934592373  53.384561214639916  16.27210493868771  -4.588026239426126  17.16110779480007  120.000000
3.2653600000000003  0.000000  0.000000  0.000000  -18.96664969010913  -1.386740306302388  -0.6325682393716965  43.63984385725052  6.593418086066904  -11.111040564564565  51.4053090937319  17.4613533051989  -2.6207282477350793  16.92998355948331  120.000000
